<svg xmlns="http://www.w3.org/2000/svg" xmlns:xlink="http://www.w3.org/1999/xlink" viewBox="0 0 24 24" width="24" height="24" style="width: 24px; height: 24px;">
    <path d="M11.357 8.46436C9.86897 8.46436 8.46413 9.92845 8.46413 12.0001C8.46413 14.0717 9.86897 15.5358 11.357 15.5358C12.845 15.5358 14.2498 14.0717 14.2498 12.0001C14.2498 9.92845 12.845 8.46436 11.357 8.46436zM6.96413 12.0001C6.96413 9.33784 8.82121 6.96436 11.357 6.96436C13.89275 6.96436 15.7498 9.33784 15.7498 12.0001C15.7498 14.6623 13.89275 17.0358 11.357 17.0358C8.82121 17.0358 6.96413 14.6623 6.96413 12.0001z" fill="currentColor"></path>
    <path d="M15.2144 7.39282C15.62865 7.39282 15.9644 7.72861 15.9644 8.14282L15.9644 13.8378C15.9644 14.91395 16.8735 15.598 17.98735 15.4706C19.01245 15.3533 20.28405 14.4599 20.4329 12.05135C20.4585 11.6379 20.8143 11.32345 21.22775 11.34905C21.64115 11.3746 21.9556 11.73045 21.93005 12.1439C21.74465 15.1426 20.03275 16.74635 18.15785 16.96085C16.3718 17.1652 14.4644 16.01585 14.4644 13.8378L14.4644 8.14282C14.4644 7.72861 14.80025 7.39282 15.2144 7.39282z" fill="currentColor"></path>
    <path d="M12 3.5625C7.3401 3.5625 3.5625 7.3401 3.5625 12C3.5625 16.6599 7.3401 20.4375 12 20.4375C13.6982 20.4375 15.2771 19.9366 16.5998 19.07465C16.94685 18.84855 17.4115 18.94655 17.63765 19.2936C17.86375 19.6406 17.76575 20.1053 17.4187 20.33145C15.8598 21.34725 13.9977 21.9375 12 21.9375C6.51167 21.9375 2.0625 17.48835 2.0625 12C2.0625 6.51167 6.51167 2.0625 12 2.0625C17.48835 2.0625 21.9375 6.51167 21.9375 12C21.9375 12.4142 21.6017 12.75 21.1875 12.75C20.7733 12.75 20.4375 12.4142 20.4375 12C20.4375 7.3401 16.6599 3.5625 12 3.5625z" fill="currentColor"></path>
</svg>