<svg xmlns="http://www.w3.org/2000/svg" xmlns:xlink="http://www.w3.org/1999/xlink" viewBox="0 0 14 14" width="14"
    height="14" style="width: 14px; height: 14px;">
    <path
        d="M7 2.5416666666666665C4.537728333333334 2.5416666666666665 2.5416666666666665 4.537728333333334 2.5416666666666665 7C2.5416666666666665 9.462258333333335 4.537728333333334 11.458333333333334 7 11.458333333333334C8.228508333333334 11.458333333333334 9.340141666666668 10.962100000000001 10.147058333333336 10.157975000000002C10.342658333333333 9.963033333333334 10.659241666666667 9.963591666666666 10.854158333333334 10.159191666666667C11.0491 10.354775 11.048541666666669 10.671375000000001 10.852941666666666 10.866291666666669C9.866241666666667 11.8496 8.50375 12.458333333333334 7 12.458333333333334C3.985445833333334 12.458333333333334 1.5416666666666667 10.014558333333333 1.5416666666666667 7C1.5416666666666667 3.985445833333334 3.985445833333334 1.5416666666666667 7 1.5416666666666667C10.014558333333333 1.5416666666666667 12.458333333333334 3.985445833333334 12.458333333333334 7C12.458333333333334 7.2046 12.447066666666666 7.406766666666668 12.425058333333334 7.605858333333334C12.394716666666667 7.880358333333334 12.147616666666668 8.078258333333334 11.873116666666668 8.0479C11.598658333333335 8.017558333333334 11.400758333333336 7.770458333333334 11.431116666666668 7.496C11.449066666666667 7.333308333333334 11.458333333333334 7.167841666666667 11.458333333333334 7C11.458333333333334 4.537728333333334 9.462258333333335 2.5416666666666665 7 2.5416666666666665z"
        fill="currentColor"></path>
    <path
        d="M10.146441666666668 6.354775000000001C10.341700000000001 6.159533333333334 10.6583 6.159533333333334 10.853558333333332 6.354775000000001L11.958333333333334 7.459566666666667L13.063108333333336 6.354775000000001C13.258366666666667 6.159533333333334 13.574966666666667 6.159533333333334 13.770225 6.354775000000001C13.965466666666668 6.550033333333333 13.965466666666668 6.8666333333333345 13.770225 7.061891666666667L12.415008333333335 8.417091666666668C12.162775 8.669325 11.753891666666668 8.669325 11.501658333333333 8.417091666666668L10.146441666666668 7.061891666666667C9.951200000000002 6.8666333333333345 9.951200000000002 6.550033333333333 10.146441666666668 6.354775000000001z"
        fill="currentColor"></path>
</svg>