<svg t="1730857747130" class="icon" viewBox="0 0 1024 1024" version="1.1" xmlns="http://www.w3.org/2000/svg" p-id="67049" width="20" height="20">
    <path d="M438.857143 146.285714C196.754286 146.285714 0 343.04 0 585.142857s196.754286 438.857143 438.857143 438.857143 438.857143-196.754286 438.857143-438.857143-196.754286-438.857143-438.857143-438.857143z m0 752.64c-173.348571 0-313.782857-140.434286-313.782857-313.782857S265.508571 271.36 438.857143 271.36s313.782857 140.434286 313.782857 313.782857-140.434286 313.782857-313.782857 313.782857zM1024 438.857143c0-242.102857-196.754286-438.857143-438.857143-438.857143-110.445714 0-210.651429 40.96-288.182857 107.52 54.857143-21.942857 114.834286-34.377143 178.468571-34.377143 262.582857 0 475.428571 212.845714 475.428572 475.428572 0 62.902857-12.434286 122.88-34.377143 178.468571C983.04 649.508571 1024 549.302857 1024 438.857143zM625.371429 556.617143L383.268571 426.422857c-14.628571-10.971429-35.108571 0-35.108571 19.017143v259.657143c0 18.285714 20.48 29.257143 35.108571 19.017143l242.102858-129.462857c5.851429-4.388571 9.508571-11.702857 9.508571-19.017143 0-8.045714-3.657143-14.628571-9.508571-19.017143z" p-id="67050"></path>
</svg>