<svg t="1730605090581" class="icon" viewBox="0 0 1024 1024" version="1.1" xmlns="http://www.w3.org/2000/svg" p-id="42428" width="32" height="32">
    <path d="M776 810.666667l36.117333 32.106666A42.666667 42.666667 0 0 1 783.786667 917.333333H240.213333a42.666667 42.666667 0 0 1-28.330666-74.56L247.978667 810.666667h528.021333zM746.666667 128a170.666667 170.666667 0 0 1 170.666666 170.666667v277.333333a170.666667 170.666667 0 0 1-170.666666 170.666667H277.333333a170.666667 170.666667 0 0 1-170.666666-170.666667V298.666667a170.666667 170.666667 0 0 1 170.666666-170.666667h469.333334z m-278.954667 192A40.96 40.96 0 0 0 426.666667 360.874667v174.250666c0 8.064 2.389333 15.957333 6.890666 22.677334a41.152 41.152 0 0 0 56.917334 11.328l131.242666-87.125334a40.768 40.768 0 0 0 0-68.010666l-131.242666-87.125334A41.173333 41.173333 0 0 0 467.712 320z" fill="#1AB370" p-id="42429"></path>
</svg>