<svg t="1730729263726" class="icon" viewBox="0 0 1024 1024" version="1.1" xmlns="http://www.w3.org/2000/svg" p-id="49105" width="20" height="20">
    <path d="M1022.89408 381.46048c4.83328-21.87264-7.29088-38.87104-14.5408-46.16192-36.37248-51.03616-101.82656-109.3632-159.98976-140.9024a376.87296 376.87296 0 0 0-99.36896-36.4544 389.7344 389.7344 0 0 0-106.65984-14.58176C622.96064 138.4448 559.9232 21.87264 545.3824 7.29088 540.54912 0 533.25824 0 523.55072 0c-36.33152 9.70752-70.28736 19.456-106.65984 36.4544-31.49824 16.9984-62.99648 36.4544-92.07808 63.16032-26.66496 21.87264-50.91328 51.03616-75.1616 82.61632-19.37408 31.58016-38.78912 80.19968-53.32992 106.9056-36.33152 16.9984-142.99136 58.32704-142.99136 58.32704s-26.66496 12.12416-38.78912 24.28928C2.4576 383.91808 0 410.624 0 420.33152c0 33.9968 2.4576 68.03456 9.70752 104.48896 9.66656 33.9968 16.95744 65.61792 31.49824 97.19808 14.5408 31.58016 31.5392 60.74368 53.32992 89.9072 19.37408 26.70592 77.57824 82.61632 77.57824 82.61632s-4.87424 89.86624 7.24992 145.77664c2.4576 16.9984 9.70752 29.16352 14.5408 36.4544 26.66496 26.70592 99.36896 46.16192 135.74144 46.16192 87.2448 4.83328 150.3232-7.29088 198.77888-24.33024 26.624-9.70752 77.53728-38.87104 89.7024-46.16192h4.83328l140.57472 53.4528c7.24992 2.4576 26.624 0 33.91488-4.83328 7.29088-4.87424 24.24832-26.74688 29.0816-33.9968 29.0816-31.62112 72.74496-138.52672 79.99488-184.68864 4.87424-33.9968 9.70752-65.61792 9.70752-99.61472-2.4576-33.9968-4.83328-68.03456-14.5408-99.61472v-14.58176c4.83328-7.29088 111.49312-143.36 121.20064-187.10528zM353.8944 646.3488a30.67904 30.67904 0 0 1-43.6224 0 30.84288 30.84288 0 0 1 0-43.74528l55.7056-55.86944-58.1632-43.74528a28.672 28.672 0 0 1-7.24992-41.28768 28.50816 28.50816 0 0 1 41.20576-7.29088l94.53568 67.9936c12.12416 9.74848 14.5408 26.74688 2.4576 36.4544L353.8944 646.3488z m305.39776-51.03616c-33.91488 0-60.6208-26.70592-60.6208-60.74368 0-33.9968 26.70592-60.74368 60.6208-60.74368 33.95584 0 60.6208 26.74688 60.6208 60.74368 0 33.9968-26.66496 60.74368-60.6208 60.74368z" fill="#000000" p-id="49106"></path>
</svg>