<svg t="1708693819833" class="icon" viewBox="0 0 1024 1024" version="1.1" xmlns="http://www.w3.org/2000/svg" p-id="4057" width="100%" height="100%">
    <path d="M512 989.866667C249.173333 989.866667 34.133333 776.533333 34.133333 512 34.133333 249.173333 249.173333 34.133333 512 34.133333s477.866667 215.04 477.866667 477.866667c0 264.533333-215.04 477.866667-477.866667 477.866667z m0-904.533334C276.48 85.333333 85.333333 276.48 85.333333 512s191.146667 426.666667 426.666667 426.666667 426.666667-191.146667 426.666667-426.666667S747.52 85.333333 512 85.333333z" p-id="4058"></path>
    <path d="M512 783.75822187c-136.53333333 0-191.14666667-107.40622187-192.96711147-111.0471104-3.64088853-9.10222187-3.64088853-18.2044448 1.8204448-27.30666667 5.46133333-7.28177813 14.5635552-12.74311147 23.66577814-12.74311146h338.60266666c9.10222187 0 18.2044448 5.46133333 23.66577707 12.74311146 5.46133333 7.28177813 5.46133333 18.2044448 1.8204448 27.30666667-5.46133333 3.64088853-60.07466667 111.04711147-196.608 111.0471104z m-112.8675552-96.4835552c23.66577813 20.02488853 60.07466667 41.87022187 112.8675552 41.87022187 52.79288853 0 89.20177813-21.84533333 112.8675552-41.87022187H399.1324448zM704.96711147 494.3075552c-7.28177813 0-14.5635552-1.8204448-20.0248896-7.28177706l-72.81777707-72.81777814c-10.92266667-10.92266667-10.92266667-27.30666667 0-38.22933333l72.81777707-72.81777813c10.92266667-10.92266667 27.30666667-10.92266667 38.22933333 0 10.92266667 10.92266667 10.92266667 27.30666667 0 38.22933333l-52.79288853 52.7928896 52.79288853 52.79288853c10.92266667 10.92266667 10.92266667 27.30666667 0 38.22933334-3.64088853 7.28177813-10.92266667 9.10222187-18.20444373 9.10222186zM319.03288853 494.3075552c-7.28177813 0-14.5635552-1.8204448-20.02488853-7.28177706-10.92266667-10.92266667-10.92266667-27.30666667 0-38.22933334l52.79288853-52.7928896-52.79288853-52.79288853c-10.92266667-10.92266667-10.92266667-27.30666667 0-38.22933333 10.92266667-10.92266667 27.30666667-10.92266667 38.22933333 0l72.81777814 72.81777813c10.92266667 10.92266667 10.92266667 27.30666667 0 38.22933333l-72.81777814 72.81777707c-3.64088853 3.64088853-10.92266667 5.46133333-18.2044448 5.46133333z" p-id="4059"></path>
</svg>