<svg xmlns="http://www.w3.org/2000/svg" xmlns:xlink="http://www.w3.org/1999/xlink" viewBox="0 0 14 14" width="14"
    height="14" style="width: 14px; height: 14px;">
    <path
        d="M6.270833333333334 2.3958333333333335C4.130730833333334 2.3958333333333335 2.3958333333333335 4.130730833333334 2.3958333333333335 6.270833333333334C2.3958333333333335 8.410958333333333 4.130730833333334 10.145833333333334 6.270833333333334 10.145833333333334C8.410958333333333 10.145833333333334 10.145833333333334 8.410958333333333 10.145833333333334 6.270833333333334C10.145833333333334 4.130730833333334 8.410958333333333 2.3958333333333335 6.270833333333334 2.3958333333333335zM1.3958333333333335 6.270833333333334C1.3958333333333335 3.578445 3.578445 1.3958333333333335 6.270833333333334 1.3958333333333335C8.963216666666668 1.3958333333333335 11.145833333333334 3.578445 11.145833333333334 6.270833333333334C11.145833333333334 8.963216666666668 8.963216666666668 11.145833333333334 6.270833333333334 11.145833333333334C3.578445 11.145833333333334 1.3958333333333335 8.963216666666668 1.3958333333333335 6.270833333333334z"
        fill="currentColor"></path>
    <path
        d="M9.271441666666668 9.271441666666668C9.466700000000001 9.0762 9.7833 9.0762 9.978558333333332 9.271441666666668L11.874391666666666 11.167275000000002C12.069633333333334 11.362533333333335 12.069633333333334 11.679133333333333 11.874391666666666 11.874391666666666C11.679133333333333 12.069633333333334 11.362533333333335 12.069633333333334 11.167275000000002 11.874391666666666L9.271441666666668 9.978558333333332C9.0762 9.7833 9.0762 9.466700000000001 9.271441666666668 9.271441666666668z"
        fill="currentColor"></path>
</svg>