<svg t="1729909989688" class="icon" viewBox="0 0 1024 1024" version="1.1" xmlns="http://www.w3.org/2000/svg" p-id="9417" width="32" height="32">
    <path d="M989.525 404.364l-362.73 277.757c-31.744 25.683-72.028 39.77-113.765 39.77s-82.385-14.395-114.798-40.545L36.489 404.419c-0.053 0.724-0.414 373.707-0.414 373.707 0 46.706 38.007 84.61 84.665 84.61h784.642c46.657 0 84.612-37.904 84.612-84.61 0 0.001-0.414-373.033-0.466-373.759z" p-id="9418"></path><path d="M65.643 310.534l396.802 303.751c14.186 11.808 32.102 18.228 50.588 18.228 18.434 0 36.403-6.421 49.554-17.401l398.82-305.355c25.58-21.231 35.164-56.546 23.82-87.716-11.235-31.276-41.111-52.247-74.358-52.247H115.251c-33.244 0-63.171 20.973-74.461 52.195-11.289 31.276-1.709 66.539 24.853 88.545z" p-id="9419"></path>
</svg>