<svg t="1730604923555" class="icon" viewBox="0 0 1024 1024" version="1.1" xmlns="http://www.w3.org/2000/svg" p-id="37678" width="32" height="32">
    <path d="M77.28 453.92c-28.32-9.28-29.696-48.864-2.08-60.064l434.624-176.32a32 32 0 0 1 24.064 0l434.624 176.32c27.712 11.232 26.24 50.976-2.24 60.128l-438.464 140.8a32 32 0 0 1-19.744-0.064l-430.784-140.8z m103.04-33.632l337.792 110.4 344.64-110.688-340.896-138.304-341.536 138.56z" fill="#1D6FB9" p-id="37679"></path>
    <path d="M754.048 575.136a32 32 0 0 1 64 0v190.496a32 32 0 0 1-12.16 25.12c-100.384 79.104-203.456 119.168-308.64 119.168-106.432 0-199.168-41.12-276.384-122.24a32 32 0 0 1-8.832-22.08v-190.464a32 32 0 0 1 64 0v177.408c63.36 62.592 136.576 93.376 221.216 93.376 85.824 0 171.232-31.68 256.8-96.032v-174.72zM889.056 458.112a32 32 0 1 1 64 0v223.68a32 32 0 1 1-64 0v-223.68zM889.056 809.248a32 32 0 1 1 64 0v59.392a32 32 0 1 1-64 0v-59.392z" fill="#1D6FB9" p-id="37680"></path>
</svg>