<svg t="1730604771178" class="icon" viewBox="0 0 1024 1024" version="1.1" xmlns="http://www.w3.org/2000/svg" p-id="31491" width="32" height="32">
    <path d="M927.3 338.2c-34.1-80.6-91-149-162.6-197.4-35.8-24.2-75.3-43.4-117.5-56.5-42.2-13.1-87-20.2-133.4-20.2-61.9 0-121 12.6-174.7 35.3-80.6 34.1-149 91-197.4 162.6-24.2 35.8-43.4 75.3-56.5 117.5C72.1 421.6 65 466.4 65 512.9c0 61.9 12.6 121 35.3 174.7 34.1 80.6 91 149 162.6 197.4 35.8 24.2 75.3 43.4 117.5 56.5 42.2 13.1 87 20.2 133.4 20.2 61.9 0 121-12.6 174.7-35.3 80.6-34.1 149-91 197.4-162.6 24.2-35.8 43.4-75.3 56.5-117.5 13.1-42.2 20.2-87 20.2-133.4 0-61.9-12.6-121-35.3-174.7zM262.9 598.3c-13.4-31.6-20.8-66.5-20.8-102.9 0-27.3 4.2-53.8 11.9-78.6 7.7-24.9 19-48.1 33.3-69.2 28.5-42.2 68.8-75.7 116.3-95.7 31.6-13.4 66.5-20.8 102.9-20.8 27.3 0 53.8 4.2 78.6 11.9 24.9 7.7 48.1 19 69.2 33.3C696.5 304.7 730 345 750 392.5c13.4 31.6 20.8 66.5 20.8 102.9 0 27.3-4.2 53.8-11.9 78.6-7.7 24.9-19 48.1-33.3 69.2-12.6 18.6-27.5 35.6-44.3 50.4 1.1 7.7 4.1 20.4 29 31.7 21.8 9.9 30.7 9.8 49.7 16.1 3.9 1.3 3.4 8-2 9.4-44.3 11.8-173.8 37.8-297.3 4.9-11.2-2-22.2-4.6-32.9-7.9-24.9-7.7-48.1-19-69.2-33.3-42.1-28.4-75.6-68.7-95.7-116.2z" fill="#F8B551" p-id="31492"></path>
    <path d="M427.9 747.9c10.7 3.3 21.7 6 32.9 7.9 123.5 32.8 253 6.9 297.3-4.9 5.4-1.4 5.9-8.1 2-9.4-19.1-6.3-28-6.2-49.7-16.1-25-11.3-27.9-24-29-31.7 16.8-14.8 31.7-31.8 44.3-50.4 14.2-21.1 25.5-44.4 33.3-69.2 7.7-24.8 11.9-51.3 11.9-78.6 0-36.4-7.4-71.3-20.8-102.9-20.1-47.5-53.6-87.8-95.7-116.3a268.06 268.06 0 0 0-69.2-33.3c-24.8-7.7-51.3-11.9-78.6-11.9-36.4 0-71.3 7.4-102.9 20.8-47.5 20.1-87.8 53.6-116.3 95.7-14.4 21.1-25.7 44.4-33.4 69.2-7.7 24.8-11.9 51.3-11.9 78.6 0 36.4 7.4 71.3 20.8 102.9 20.1 47.5 53.6 87.8 95.7 116.3 21.2 14.2 44.4 25.5 69.3 33.3z m225.5-293.6c24.5 0 44.3 19.8 44.3 44.3 0 24.5-19.8 44.3-44.3 44.3-24.5 0-44.3-19.8-44.3-44.3 0-24.5 19.8-44.3 44.3-44.3z m-140.8 88.6c-24.5 0-44.3-19.8-44.3-44.3 0-24.5 19.8-44.3 44.3-44.3s44.3 19.8 44.3 44.3c0 24.4-19.9 44.3-44.3 44.3z m-96.5-44.3c0 24.5-19.8 44.3-44.3 44.3s-44.3-19.8-44.3-44.3c0-24.5 19.8-44.3 44.3-44.3s44.3 19.8 44.3 44.3z" fill="#FFFFFF" p-id="31493"></path><path d="M653.4 498.6m-44.3 0a44.3 44.3 0 1 0 88.6 0 44.3 44.3 0 1 0-88.6 0Z" fill="#F8B551" p-id="31494"></path>
    <path d="M507.190692 542.56262a44.3 44.3 0 1 0 10.826785-87.936003 44.3 44.3 0 1 0-10.826785 87.936003Z" fill="#F8B551" p-id="31495"></path>
    <path d="M328.086496 505.691126a44.3 44.3 0 1 0 87.457056-14.185317 44.3 44.3 0 1 0-87.457056 14.185317Z" fill="#F8B551" p-id="31496"></path>
</svg>