<svg xmlns="http://www.w3.org/2000/svg" xmlns:xlink="http://www.w3.org/1999/xlink" viewBox="0 0 14 14" width="14" height="14" style="width: 14px; height: 14px;">
    <path d="M7 2.103029166666667C4.296105833333334 2.103029166666667 2.104166666666667 4.294968333333334 2.104166666666667 6.998833333333334C2.104166666666667 9.702750000000002 4.296105833333334 11.894666666666668 7 11.894666666666668C9.703875000000002 11.894666666666668 11.895833333333334 9.702750000000002 11.895833333333334 6.998833333333334C11.895833333333334 4.294968333333334 9.703875000000002 2.103029166666667 7 2.103029166666667zM1.1041666666666667 6.998833333333334C1.1041666666666667 3.7426825000000004 3.74382 1.1030291666666667 7 1.1030291666666667C10.256175 1.1030291666666667 12.895833333333334 3.7426825000000004 12.895833333333334 6.998833333333334C12.895833333333334 10.25505 10.256175 12.894666666666668 7 12.894666666666668C3.74382 12.894666666666668 1.1041666666666667 10.25505 1.1041666666666667 6.998833333333334z" fill="currentColor"></path>
    <path d="M4.083333333333334 7C4.083333333333334 6.723858333333334 4.307193333333334 6.5 4.583333333333333 6.5L9.416666666666668 6.5C9.692808333333334 6.5 9.916666666666668 6.723858333333334 9.916666666666668 7C9.916666666666668 7.276141666666667 9.692808333333334 7.500000000000001 9.416666666666668 7.500000000000001L4.583333333333333 7.500000000000001C4.307193333333334 7.500000000000001 4.083333333333334 7.276141666666667 4.083333333333334 7z" fill="currentColor"></path>
</svg>